<?xml version="1.0" encoding="UTF-8" standalone="no"?>
<!-- Created with Inkscape (http://www.inkscape.org/) -->

<svg
   xmlns:pcbmode="pcbmode"
   xmlns:dc="http://purl.org/dc/elements/1.1/"
   xmlns:cc="http://creativecommons.org/ns#"
   xmlns:rdf="http://www.w3.org/1999/02/22-rdf-syntax-ns#"
   xmlns:svg="http://www.w3.org/2000/svg"
   xmlns="http://www.w3.org/2000/svg"
   xmlns:sodipodi="http://sodipodi.sourceforge.net/DTD/sodipodi-0.dtd"
   xmlns:inkscape="http://www.inkscape.org/namespaces/inkscape"
   width="210mm"
   height="297mm"
   viewBox="0 0 210 297"
   version="1.1"
   id="svg5204"
   inkscape:version="0.92.2 5c3e80d, 2017-08-06"
   sodipodi:docname="nautilus-right.svg">
  <defs
     id="defs5198" />
  <sodipodi:namedview
     id="base"
     pagecolor="#ffffff"
     bordercolor="#666666"
     borderopacity="1.0"
     inkscape:pageopacity="0.0"
     inkscape:pageshadow="2"
     inkscape:zoom="0.7"
     inkscape:cx="95.714286"
     inkscape:cy="-11.428572"
     inkscape:document-units="mm"
     inkscape:current-layer="layer1"
     showgrid="false"
     inkscape:window-width="960"
     inkscape:window-height="600"
     inkscape:window-x="0"
     inkscape:window-y="23"
     inkscape:window-maximized="0" />
  <metadata
     id="metadata5201">
    <rdf:RDF>
      <cc:Work
         rdf:about="">
        <dc:format>image/svg+xml</dc:format>
        <dc:type
           rdf:resource="http://purl.org/dc/dcmitype/StillImage" />
        <dc:title></dc:title>
      </cc:Work>
    </rdf:RDF>
  </metadata>
  <g
     inkscape:label="Layer 1"
     inkscape:groupmode="layer"
     id="layer1">
    <g
       transform="translate(22.266813,269.61618)"
       style="fill:none;stroke:#555555;stroke-opacity:1"
       pcbmode:type="module-shapes"
       id="g3942">
      <path
         d="m 0.447683,25.333189 c -0.10414,0.10991 -0.312458,0.32978 -0.526233,0.54403 -0.213775,0.21424 -0.432898,0.42275 -0.62552,0.59778 -0.192623,0.17504 -0.358622,0.31648 -0.520236,0.44051 -0.161614,0.12403 -0.318721,0.23055 -0.459086,0.30865 -0.140365,0.0781 -0.263817,0.12767 -0.369762,0.14844 -0.105944,0.0208 -0.194262,0.0127 -0.271372,-0.0245 -0.07711,-0.0371 -0.142828,-0.10312 -0.201037,-0.20273 -0.05821,-0.0996 -0.10883,-0.23272 -0.151096,-0.39621 -0.04227,-0.16349 -0.07619,-0.3574 -0.09808,-0.50887 -0.02189,-0.15147 -0.03176,-0.26056 -0.04237,-0.47182 -0.01061,-0.21127 -0.02198,-0.52497 -0.03235,-0.77018 -0.01037,-0.24522 -0.01973,-0.42217 -0.0401,-0.58399 -0.02036,-0.16182 -0.05174,-0.30864 -0.101951,-0.43059 -0.05021,-0.12195 -0.119343,-0.2192 -0.207474,-0.28015 -0.08813,-0.061 -0.198064,-0.0863 -0.318039,-0.0769 -0.119974,0.009 -0.251298,0.0531 -0.388262,0.11881 -0.136965,0.0657 -0.279375,0.15319 -0.519375,0.3142 -0.240001,0.16101 -0.577232,0.39528 -0.837541,0.56449 -0.260309,0.1692 -0.443498,0.27322 -0.611939,0.35498 -0.168442,0.0818 -0.32204,0.14123 -0.45278,0.17413 -0.130741,0.0329 -0.238528,0.0392 -0.327645,0.0199 -0.08912,-0.0192 -0.159433,-0.064 -0.216396,-0.1382 -0.05696,-0.0742 -0.100482,-0.17766 -0.131862,-0.31382 -0.03138,-0.13617 -0.05062,-0.305 -0.05702,-0.50694 -0.0064,-0.20193 -0.0012,-0.39207 0.01281,-0.60552 0.01403,-0.21345 0.0363,-0.42788 0.06224,-0.6727 0.02593,-0.24483 0.05554,-0.52025 0.0664,-0.73333 0.01086,-0.21308 0.003,-0.36395 -0.02725,-0.49376 -0.03024,-0.12981 -0.08288,-0.23864 -0.16028,-0.31468 -0.0774,-0.076 -0.179674,-0.11933 -0.298637,-0.12998 -0.118963,-0.0106 -0.254594,0.0113 -0.399006,0.0547 -0.144411,0.0434 -0.297456,0.1082 -0.460095,0.18427 -0.162639,0.0761 -0.334671,0.16333 -0.518197,0.25395 -0.183525,0.0906 -0.378327,0.18447 -0.574513,0.26977 -0.196187,0.0853 -0.393542,0.16196 -0.573644,0.21893 -0.180103,0.057 -0.34277,0.0942 -0.47869,0.10874 -0.135921,0.0146 -0.244976,0.006 -0.331461,-0.024 -0.08649,-0.0305 -0.150199,-0.0833 -0.19665,-0.16323 -0.04645,-0.0799 -0.07555,-0.18669 -0.08743,-0.32396 -0.01188,-0.13727 -0.0065,-0.30513 0.01434,-0.49352 0.02088,-0.18839 0.05734,-0.39749 0.102505,-0.60663 0.04517,-0.20914 0.0991,-0.41851 0.151855,-0.61563 0.05276,-0.19711 0.1044,-0.38218 0.146788,-0.55565 0.04239,-0.17347 0.07556,-0.33548 0.08922,-0.48492 0.01366,-0.14944 0.0078,-0.28641 -0.02697,-0.40052 -0.03479,-0.11412 -0.09857,-0.20551 -0.189396,-0.26573 -0.09083,-0.0602 -0.208794,-0.0893 -0.342697,-0.0925 -0.133904,-0.003 -0.28369,0.0196 -0.443783,0.0569 -0.160092,0.0373 -0.330362,0.0892 -0.512988,0.14713 -0.182627,0.058 -0.377445,0.12199 -0.580957,0.18275 -0.203512,0.0608 -0.415538,0.1182 -0.618032,0.16237 -0.202494,0.0442 -0.39531,0.075 -0.561226,0.0878 -0.165917,0.0128 -0.304828,0.007 -0.414554,-0.0159 -0.109727,-0.0234 -0.19021,-0.0649 -0.247788,-0.1268 -0.05758,-0.0619 -0.09226,-0.14415 -0.105792,-0.25311 -0.01353,-0.10896 -0.0059,-0.24464 0.0228,-0.40571 0.02873,-0.16106 0.07861,-0.34766 0.185767,-0.63713 0.107153,-0.28947 0.27169,-0.68213 0.389617,-0.96039 0.117926,-0.27826 0.189314,-0.4423 0.245614,-0.59792 0.0563,-0.15561 0.09756,-0.30293 0.111974,-0.43779 0.01442,-0.13486 0.002,-0.25742 -0.04442,-0.35686 -0.04643,-0.0994 -0.1269,-0.17586 -0.234052,-0.22572 -0.107152,-0.0499 -0.241032,-0.0732 -0.389614,-0.078 -0.148581,-0.005 -0.311785,0.009 -0.539482,0.0391 -0.227698,0.0303 -0.519654,0.0771 -0.827063,0.11467 -0.307409,0.0376 -0.630037,0.0659 -0.876822,0.0736 -0.246785,0.008 -0.417583,-0.005 -0.55567,-0.0313 -0.138088,-0.0261 -0.243334,-0.0653 -0.31979,-0.11858 -0.07646,-0.0533 -0.124024,-0.12058 -0.146978,-0.20753 -0.02295,-0.087 -0.02129,-0.1935 0.0059,-0.32445 0.02715,-0.13095 0.07982,-0.28641 0.154589,-0.4577 0.07477,-0.1713 0.171743,-0.35867 0.278023,-0.54429 0.106281,-0.18561 0.221977,-0.36967 0.356343,-0.57868 0.134366,-0.20902 0.287536,-0.4432 0.396981,-0.62983 0.109444,-0.18663 0.175269,-0.32588 0.212958,-0.45747 0.03769,-0.13159 0.04729,-0.25562 0.01971,-0.36262 -0.02758,-0.107 -0.09241,-0.19717 -0.188297,-0.26511 -0.09589,-0.0679 -0.222949,-0.11373 -0.46215,-0.1431 -0.239201,-0.0294 -0.59041,-0.0423 -0.873378,-0.0505 -0.282969,-0.008 -0.49755,-0.0118 -0.712069,-0.0237 -0.214518,-0.0119 -0.428836,-0.0321 -0.620445,-0.0621 -0.191609,-0.03 -0.360371,-0.0697 -0.494666,-0.11733 -0.134295,-0.0476 -0.233975,-0.10301 -0.302835,-0.16706 -0.06886,-0.0641 -0.106816,-0.13665 -0.117439,-0.22459 -0.01062,-0.0879 0.0061,-0.19125 0.05188,-0.31472 0.04579,-0.12346 0.120756,-0.2673 0.220708,-0.4238 0.09995,-0.1565 0.225021,-0.32588 0.425804,-0.56298 0.200784,-0.2371 0.477497,-0.54218 0.669582,-0.75881 0.192084,-0.21664 0.299664,-0.34497 0.385697,-0.47162 0.08603,-0.12665 0.150589,-0.25171 0.179808,-0.371 0.02922,-0.11929 0.02315,-0.23297 -0.02213,-0.33201 -0.04528,-0.099 -0.12985,-0.18361 -0.241832,-0.25169 -0.111982,-0.0681 -0.251424,-0.1197 -0.406707,-0.16196 -0.155283,-0.0423 -0.326344,-0.0752 -0.511497,-0.10807 -0.185153,-0.0329 -0.384268,-0.0658 -0.59157,-0.10553 -0.207302,-0.0397 -0.422639,-0.0863 -0.625886,-0.14074 -0.203247,-0.0544 -0.394302,-0.11668 -0.55352,-0.18262 -0.159217,-0.0659 -0.286483,-0.13551 -0.378991,-0.20674 -0.09251,-0.0712 -0.150219,-0.14413 -0.178184,-0.22336 -0.02797,-0.0792 -0.0262,-0.16481 0.0062,-0.26413 0.03239,-0.0993 0.09544,-0.2125 0.18982,-0.33926 0.09438,-0.12676 0.220227,-0.2673 0.365597,-0.41002 0.14537,-0.14271 0.310444,-0.28778 0.512879,-0.45224 0.202435,-0.16447 0.442433,-0.3485 0.626542,-0.49452 0.184108,-0.14602 0.312455,-0.25412 0.420124,-0.36433 0.10767,-0.11021 0.194757,-0.2226 0.246364,-0.33558 0.05161,-0.11297 0.06781,-0.22667 0.0424,-0.33266 -0.02542,-0.10599 -0.09253,-0.2045 -0.189692,-0.29129 -0.09716,-0.0868 -0.224493,-0.162 -0.369008,-0.23021 -0.144514,-0.0682 -0.306213,-0.12945 -0.533131,-0.21221 -0.226917,-0.0828 -0.518932,-0.18702 -0.76406,-0.28408 -0.245127,-0.0971 -0.443276,-0.1869 -0.617663,-0.27891 -0.174388,-0.092 -0.324961,-0.18615 -0.440368,-0.27612 -0.115407,-0.09 -0.195655,-0.17579 -0.243496,-0.25883 -0.04784,-0.083 -0.06327,-0.16322 -0.04846,-0.24836 0.01481,-0.0851 0.05989,-0.1753 0.139202,-0.27523 0.07932,-0.0999 0.193026,-0.20985 0.33586,-0.32421 0.142833,-0.11437 0.315006,-0.23337 0.496441,-0.34649 0.181435,-0.11311 0.372323,-0.22047 0.55451,-0.31877 0.182188,-0.0983 0.355874,-0.18766 0.515662,-0.27406 0.159789,-0.0864 0.305884,-0.16996 0.432533,-0.25929 0.12665,-0.0893 0.233994,-0.18455 0.306859,-0.28665 0.07287,-0.10211 0.111355,-0.21124 0.107555,-0.32041 -0.0038,-0.10916 -0.04989,-0.21856 -0.128443,-0.3214 -0.07855,-0.10284 -0.189701,-0.1993 -0.360911,-0.3147 -0.17121,-0.11539 -0.402528,-0.24977 -0.657013,-0.40036 -0.254486,-0.15059 -0.532108,-0.31737 -0.751921,-0.46316 -0.219813,-0.14579 -0.381781,-0.27057 -0.513013,-0.38826 -0.131233,-0.11769 -0.231702,-0.22826 -0.298641,-0.32784 -0.06694,-0.0996 -0.100358,-0.1882 -0.10389,-0.27198 -0.0035,-0.0838 0.02279,-0.16277 0.08213,-0.24436 0.05934,-0.0816 0.15177,-0.16592 0.279285,-0.25282 0.127515,-0.0869 0.290337,-0.17654 0.525146,-0.27889 0.234809,-0.10235 0.541913,-0.21756 0.830662,-0.31702 0.288748,-0.0995 0.559346,-0.18322 0.766743,-0.25635 0.207397,-0.0731 0.351674,-0.13567 0.471978,-0.21032 0.120304,-0.0746 0.216795,-0.1615 0.274467,-0.26006 0.05767,-0.0986 0.07665,-0.20898 0.05577,-0.32257 -0.02088,-0.1136 -0.08165,-0.23055 -0.167936,-0.3453 -0.08629,-0.11475 -0.198172,-0.22739 -0.324839,-0.34203 -0.126666,-0.11465 -0.268139,-0.23131 -0.460363,-0.39621 -0.192224,-0.16489 -0.435186,-0.378 -0.625888,-0.56111 -0.190702,-0.18311 -0.32914,-0.33621 -0.438857,-0.47694 -0.109717,-0.14072 -0.190705,-0.26905 -0.240438,-0.38006 -0.04973,-0.111 -0.06821,-0.20462 -0.03719,-0.3047 0.03101,-0.10008 0.111529,-0.20667 0.221713,-0.29168 0.110184,-0.085 0.250229,-0.14856 0.42051,-0.2065 0.170281,-0.0579 0.371073,-0.11035 0.580216,-0.15374 0.209142,-0.0434 0.426858,-0.0778 0.633354,-0.10578 0.206496,-0.0279 0.401925,-0.0495 0.583235,-0.0726 0.18131,-0.0232 0.348663,-0.048 0.500866,-0.0844 0.152203,-0.0364 0.289418,-0.0846 0.398493,-0.15164 0.109076,-0.0671 0.190079,-0.15313 0.23105,-0.25521 0.04097,-0.10208 0.04197,-0.22034 0.0095,-0.34406 -0.03252,-0.12373 -0.0986,-0.25311 -0.183629,-0.38458 -0.08503,-0.13147 -0.189058,-0.26513 -0.337996,-0.44962 -0.148937,-0.1845 -0.342808,-0.41987 -0.502763,-0.62803 -0.159955,-0.20816 -0.285996,-0.38912 -0.391532,-0.5616 -0.105535,-0.17249 -0.190575,-0.3365 -0.247523,-0.47798 -0.05695,-0.14148 -0.08582,-0.26046 -0.08898,-0.35902 -0.0032,-0.0986 0.01938,-0.17678 0.06959,-0.24329 0.05021,-0.0665 0.128265,-0.12152 0.289521,-0.17274 0.161256,-0.0512 0.406164,-0.0988 0.638468,-0.12428 0.232304,-0.0255 0.452294,-0.0288 0.715084,-0.0198 0.26279,0.009 0.568592,0.0302 0.806101,0.0449 0.237509,0.0147 0.406849,0.0228 0.563997,0.0171 0.157147,-0.006 0.302206,-0.0252 0.423942,-0.0687 0.121735,-0.0435 0.220203,-0.11113 0.282571,-0.20247 0.06237,-0.0913 0.08872,-0.20654 0.08252,-0.33367 -0.0062,-0.12712 -0.04494,-0.26641 -0.102134,-0.4109 -0.05719,-0.14449 -0.132893,-0.29436 -0.267146,-0.55298 -0.134253,-0.25863 -0.327131,-0.62616 -0.460633,-0.90822 -0.133503,-0.28206 -0.20766,-0.47871 -0.259667,-0.65371 -0.05201,-0.175 -0.08188,-0.32839 -0.08947,-0.45331 -0.0076,-0.12491 0.0071,-0.22134 0.0435,-0.29698 0.03643,-0.0756 0.09471,-0.13061 0.181468,-0.17057 0.08676,-0.04 0.202272,-0.065 0.40365,-0.0658 0.201378,-7.6e-4 0.489014,0.0228 0.740692,0.059 0.251679,0.0362 0.467598,0.085 0.670691,0.1364 0.203094,0.0514 0.393422,0.10528 0.570823,0.15324 0.1774,0.048 0.341936,0.09 0.497699,0.11654 0.155762,0.0266 0.30283,0.0377 0.432393,0.0209 0.129563,-0.0168 0.241721,-0.0616 0.323202,-0.13718 0.08148,-0.0755 0.132392,-0.18188 0.153272,-0.30673 0.02088,-0.12484 0.01178,-0.26842 -0.0148,-0.42062 -0.02657,-0.1522 -0.07064,-0.31321 -0.12214,-0.4858 -0.0515,-0.17259 -0.110462,-0.35689 -0.16866,-0.55517 -0.0582,-0.19828 -0.115661,-0.41063 -0.161592,-0.62132 -0.04593,-0.21068 -0.08035,-0.41976 -0.09744,-0.6035 -0.01708,-0.18373 -0.01685,-0.34219 -3.8e-4,-0.46798 0.01647,-0.12579 0.04913,-0.21893 0.09849,-0.28724 0.04936,-0.0683 0.115473,-0.11186 0.206287,-0.13494 0.09081,-0.0231 0.206561,-0.0258 0.351392,-0.006 0.144831,0.0194 0.319048,0.0609 0.508465,0.12181 0.189417,0.0609 0.394196,0.1411 0.673326,0.2708 0.27913,0.12969 0.632733,0.30891 0.882902,0.4295 0.250169,0.12059 0.396987,0.1826 0.537707,0.22131 0.14072,0.0387 0.275376,0.0542 0.39254,0.0336 0.117164,-0.0205 0.216905,-0.077 0.289761,-0.16568 0.07286,-0.0887 0.118958,-0.20972 0.143319,-0.34761 0.02436,-0.1379 0.02703,-0.29286 0.01976,-0.45848 -0.0073,-0.16561 -0.02447,-0.34206 -0.04209,-0.55546 -0.01762,-0.21341 -0.03545,-0.46103 -0.04639,-0.66792 -0.01094,-0.20688 -0.01565,-0.40309 0.0023,-0.62338 0.01796,-0.22029 0.05821,-0.48052 0.103529,-0.65363 0.04531,-0.17311 0.09568,-0.25917 0.156794,-0.31735 0.06112,-0.0582 0.133034,-0.0886 0.224842,-0.0943 0.09181,-0.006 0.20377,0.0133 0.339897,0.0601 0.136126,0.0468 0.296631,0.12148 0.469098,0.21891 0.172467,0.0974 0.356996,0.21767 0.569952,0.37457 0.212956,0.1569 0.454405,0.35053 0.641677,0.50048 0.187272,0.14995 0.32039,0.25625 0.451871,0.3461 0.131481,0.0898 0.261359,0.16325 0.387916,0.20487 0.126556,0.0416 0.249803,0.0515 0.357972,0.0204 0.108169,-0.0311 0.201339,-0.1033 0.273949,-0.20565 0.07261,-0.10235 0.124782,-0.23503 0.163492,-0.38242 0.03871,-0.14738 0.06402,-0.30969 0.0868,-0.48542 0.02278,-0.17573 0.04305,-0.36511 0.06989,-0.56805 0.02684,-0.20295 0.06027,-0.41966 0.103921,-0.63222 0.04366,-0.21256 0.09758,-0.42117 0.174126,-0.62322 0.07654,-0.20206 0.175779,-0.39776 0.260076,-0.51733 0.0843,-0.11958 0.153635,-0.1631 0.231781,-0.1794 0.07815,-0.0163 0.165315,-0.005 0.270034,0.0361 0.10472,0.0415 0.227279,0.11367 0.364559,0.21717 0.13728,0.1035 0.289404,0.23841 0.439867,0.38911 0.150463,0.15071 0.299289,0.31724 0.435203,0.47922 0.135915,0.16198 0.258906,0.31939 0.400513,0.49276 0.141607,0.17338 0.301798,0.36268 0.439736,0.49517 0.137937,0.13249 0.25362,0.20818 0.369668,0.24434 0.116048,0.0362 0.232487,0.0328 0.338113,-0.0122 0.105626,-0.0451 0.200601,-0.13193 0.28219,-0.24388 0.08159,-0.11195 0.149968,-0.24922 0.228655,-0.44645 0.07869,-0.19723 0.167808,-0.45473 0.252193,-0.68526 0.08438,-0.23053 0.164118,-0.43432 0.253445,-0.63284 0.08933,-0.19853 0.188313,-0.39194 0.286759,-0.55542 0.09845,-0.16348 0.196403,-0.29713 0.286608,-0.39416 0.09021,-0.097 0.172783,-0.15756 0.252113,-0.18812 0.07933,-0.0306 0.155549,-0.0312 0.238996,-0.002 0.08345,0.0293 0.174398,0.0885 0.276379,0.18381 0.10198,0.0953 0.215143,0.22665 0.3303,0.38546 0.115156,0.15881 0.232319,0.34507 0.339493,0.53463 0.107175,0.18955 0.204355,0.38241 0.309141,0.59957 0.104786,0.21716 0.217157,0.45858 0.315231,0.64207 0.09807,0.1835 0.181827,0.30903 0.276877,0.40623 0.09505,0.0972 0.201356,0.16603 0.31286,0.19094 0.111504,0.0249 0.228184,0.006 0.339392,-0.0505 0.111208,-0.0564 0.217056,-0.15039 0.339634,-0.30169 0.122579,-0.1513 0.262093,-0.36019 0.419235,-0.59578 0.157142,-0.23559 0.332075,-0.49811 0.52402,-0.74471 0.191946,-0.24661 0.40103,-0.47747 0.561227,-0.6302 0.160197,-0.15272 0.271577,-0.2274 0.367984,-0.27079 0.09641,-0.0434 0.177927,-0.0556 0.25458,-0.04 0.07665,0.0156 0.148566,0.0588 0.223465,0.13691 0.0749,0.0781 0.152853,0.19096 0.23106,0.34002 0.07821,0.14907 0.156673,0.33432 0.22678,0.53503 0.07011,0.20071 0.13184,0.41682 0.199928,0.70713 0.06809,0.29031 0.142498,0.6547 0.204892,0.9083 0.06239,0.25361 0.112754,0.39634 0.181112,0.5152 0.06836,0.11886 0.154613,0.21372 0.256881,0.26726 0.102268,0.0535 0.220451,0.0657 0.342176,0.0395 0.121725,-0.0262 0.247023,-0.0907 0.435638,-0.2409 0.188615,-0.15017 0.440826,-0.38615 0.647704,-0.57671 0.206878,-0.19056 0.368615,-0.33586 0.538784,-0.47352 0.170169,-0.13765 0.34892,-0.26778 0.514306,-0.37179 0.165385,-0.104 0.317525,-0.18197 0.444934,-0.23042 0.127409,-0.0484 0.230203,-0.0674 0.315566,-0.0618 0.08536,0.006 0.153474,0.0357 0.214425,0.0949 0.06095,0.0592 0.114913,0.1476 0.163137,0.27377 0.04823,0.12617 0.09075,0.29013 0.122516,0.48162 0.03177,0.19148 0.05277,0.41035 0.06243,0.62891 0.0097,0.21855 0.008,0.43668 2.02e-4,0.67903 -0.0078,0.24236 -0.02173,0.5088 -0.0225,0.71774 -7.69e-4,0.20895 0.01163,0.36026 0.04719,0.49392 0.03556,0.13367 0.09426,0.24954 0.179065,0.32941 0.08481,0.0799 0.195663,0.12364 0.31968,0.13046 0.124016,0.007 0.261208,-0.0233 0.47968,-0.12087 0.218473,-0.0975 0.518512,-0.26262 0.764373,-0.39548 0.245861,-0.13286 0.437751,-0.23361 0.636901,-0.32521 0.199149,-0.0916 0.405739,-0.17414 0.593637,-0.23474 0.187898,-0.0606 0.357251,-0.0993 0.494791,-0.11578 0.13754,-0.0164 0.243357,-0.0106 0.32556,0.0144 0.0822,0.025 0.140966,0.0694 0.185895,0.13947 0.04493,0.0701 0.07605,0.16599 0.09229,0.29762 0.01624,0.13162 0.01757,0.29886 0.0015,0.49137 -0.01604,0.1925 -0.04944,0.41009 -0.07943,0.57385 -0.02999,0.16376 -0.05655,0.27357 -0.113517,0.46738 -0.05696,0.1938 -0.144242,0.4713 -0.209426,0.68733 -0.06518,0.21602 -0.108201,0.37035 -0.132625,0.5192 -0.02442,0.14885 -0.03022,0.29204 -0.003,0.41635 0.02721,0.12432 0.08741,0.22956 0.178661,0.30171 0.09126,0.0721 0.213489,0.1111 0.349388,0.12236 0.1359,0.0113 0.285526,-0.005 0.486695,-0.0476 0.201169,-0.0424 0.454087,-0.11073 0.685505,-0.16892 0.231418,-0.0582 0.441531,-0.10629 0.657892,-0.14362 0.216361,-0.0373 0.43914,-0.0639 0.634178,-0.0743 0.195037,-0.0104 0.380462,-0.004 0.519752,0.0152 0.13929,0.0192 0.241558,0.0516 0.315695,0.0959 0.07414,0.0443 0.120244,0.10049 0.146451,0.17768 0.02621,0.0772 0.03254,0.17537 0.01545,0.30447 -0.01709,0.12911 -0.05758,0.28898 -0.0973,0.41842 -0.03973,0.12944 -0.0787,0.22842 -0.14997,0.37919 -0.07127,0.15077 -0.174741,0.35312 -0.280929,0.54057 -0.106188,0.18744 -0.21497,0.35975 -0.335708,0.55074 -0.120739,0.19098 -0.25331,0.40045 -0.342792,0.5737 -0.08948,0.17326 -0.135783,0.31015 -0.145398,0.43862 -0.0096,0.12848 0.01748,0.24841 0.08406,0.34475 0.06659,0.0963 0.172593,0.16897 0.299644,0.21769 0.127051,0.0487 0.27513,0.0735 0.478584,0.0869 0.203454,0.0134 0.462424,0.0154 0.699042,0.0213 0.236618,0.006 0.45103,0.0158 0.669928,0.038 0.218898,0.0221 0.442431,0.0566 0.639686,0.10101 0.197255,0.0444 0.368378,0.0988 0.49945,0.1554 0.131072,0.0566 0.2222,0.11528 0.281541,0.198 0.05934,0.0827 0.08695,0.18953 0.07696,0.30155 -0.01,0.11201 -0.05754,0.22914 -0.13753,0.36851 -0.07999,0.13937 -0.192295,0.30075 -0.325947,0.4653 -0.133651,0.16454 -0.288487,0.33203 -0.476185,0.51214 -0.187698,0.18011 -0.408067,0.37264 -0.577649,0.52247 -0.169583,0.14984 -0.288252,0.25687 -0.390138,0.36951 -0.101886,0.11264 -0.186897,0.23079 -0.234887,0.35192 -0.04799,0.12113 -0.05888,0.24507 -0.0246,0.35784 0.03429,0.11278 0.11374,0.21425 0.220568,0.29791 0.106828,0.0837 0.240945,0.14945 0.430619,0.21918 0.189675,0.0697 0.434956,0.14341 0.658544,0.21478 0.223588,0.0714 0.425588,0.14047 0.629691,0.2236 0.204103,0.0831 0.410418,0.18032 0.589083,0.2799 0.178664,0.0996 0.329773,0.20157 0.441489,0.29393 0.111716,0.0923 0.184111,0.17513 0.219632,0.27039 0.03552,0.0953 0.03419,0.20306 -0.0046,0.30571 -0.03875,0.10265 -0.114907,0.20006 -0.228958,0.31031 -0.114052,0.11026 -0.265819,0.2332 -0.38996,0.32559 -0.124141,0.0924 -0.220535,0.15413 -0.367629,0.23668 -0.147095,0.0825 -0.344644,0.18576 -0.566014,0.29018 -0.221369,0.10442 -0.466291,0.20991 -0.656006,0.29964 -0.189716,0.0897 -0.324047,0.1636 -0.418213,0.22423 -0.09417,0.0606 -0.148044,0.10791 -0.200339,0.18957 -0.0523,0.0817 -0.102874,0.19749 -0.106177,0.31624 -0.0033,0.11875 0.0407,0.24016 0.116643,0.35243 0.07594,0.11227 0.183734,0.21526 0.428596,0.39938 0.244862,0.18412 0.626767,0.44935 0.902373,0.65953 0.275606,0.21018 0.444927,0.36532 0.587666,0.51527 0.142739,0.14995 0.258906,0.29472 0.339768,0.41798 0.08086,0.12326 0.126404,0.22498 0.145275,0.31053 0.01887,0.0856 0.01104,0.15484 -0.02376,0.2222 -0.03481,0.0673 -0.0965,0.1326 -0.197399,0.20186 -0.100895,0.0692 -0.240756,0.14235 -0.415931,0.21196 -0.175175,0.0696 -0.385415,0.13563 -0.649689,0.19359 -0.264273,0.058 -0.582341,0.10782 -0.863922,0.14515 -0.281582,0.0373 -0.526513,0.0621 -0.719495,0.0968 -0.192983,0.0347 -0.33394,0.0792 -0.44824,0.14846 -0.114301,0.0692 -0.201799,0.16307 -0.244936,0.27496 -0.04314,0.1119 -0.0418,0.24167 -0.0062,0.37242 0.0356,0.13074 0.105434,0.26229 0.248067,0.46593 0.142632,0.20364 0.357972,0.47923 0.527405,0.71245 0.169434,0.23322 0.292934,0.42403 0.401138,0.61828 0.108204,0.19425 0.201082,0.39188 0.266379,0.56359 0.0653,0.17171 0.102992,0.31747 0.11755,0.43201 0.01456,0.11453 0.006,0.19779 -0.02249,0.26461 -0.02845,0.0668 -0.07677,0.11718 -0.156937,0.16024 -0.08016,0.0431 -0.191901,0.0787 -0.344065,0.10326 -0.152164,0.0246 -0.344413,0.038 -0.55628,0.0352 -0.211867,-0.003 -0.443127,-0.0218 -0.703087,-0.0623 -0.25996,-0.0405 -0.548432,-0.10249 -0.769513,-0.15121 -0.221082,-0.0487 -0.374664,-0.0842 -0.525769,-0.10478 -0.151106,-0.0206 -0.299622,-0.0264 -0.432388,-2.4e-4 -0.132767,0.0262 -0.249651,0.0844 -0.330161,0.17498 -0.08051,0.0906 -0.124516,0.21355 -0.135407,0.34874 -0.01089,0.13519 0.01136,0.28243 0.0935,0.57241 0.08214,0.28998 0.224065,0.72238 0.30732,0.99597 0.08326,0.2736 0.107785,0.38823 0.131324,0.5558 0.02354,0.16758 0.04606,0.38794 0.05088,0.57461 0.0048,0.18667 -0.0081,0.3395 -0.032,0.45406 -0.02392,0.11455 -0.05883,0.19067 -0.106065,0.24475 -0.04723,0.0541 -0.106608,0.0859 -0.19349,0.10073 -0.08688,0.0148 -0.200925,0.0125 -0.350548,-0.0135 -0.149623,-0.026 -0.334548,-0.0756 -0.533608,-0.14769 -0.19906,-0.0721 -0.412111,-0.16677 -0.608265,-0.26776 -0.196154,-0.10099 -0.37533,-0.2083 -0.566422,-0.32966 -0.191092,-0.12136 -0.394043,-0.25675 -0.564243,-0.35406 -0.170199,-0.0973 -0.307606,-0.15652 -0.442501,-0.18045 -0.134896,-0.0239 -0.267258,-0.0126 -0.376747,0.0428 -0.109488,0.0554 -0.196017,0.15484 -0.25489,0.27749 -0.05887,0.12266 -0.08999,0.26836 -0.107228,0.46266 -0.01724,0.1943 -0.02057,0.43692 -0.02831,0.66169 -0.0077,0.22477 -0.01986,0.4315 -0.03441,0.5931 -0.01455,0.16161 -0.03151,0.278 -0.0686,0.44496 -0.03709,0.16696 -0.09426,0.38427 -0.139807,0.53411 -0.04555,0.14983 -0.07947,0.23209 -0.123931,0.32315 -0.04446,0.0911 -0.09944,0.19082 -0.207832,0.23639 -0.108397,0.0456 -0.269995,0.0369 -0.429109,-0.006 -0.159113,-0.0424 -0.314369,-0.11784 -0.456464,-0.21262 -0.142095,-0.0948 -0.270355,-0.20855 -0.410804,-0.35137 C 10.245799,6.031809 10.093189,5.859969 9.962847,5.698489 9.832504,5.537019 9.724425,5.385909 9.626107,5.246589 9.527787,5.107259 9.439214,4.979699 9.342166,4.862409 9.245116,4.745119 9.13956,4.638059 9.022385,4.563529 8.90521,4.489029 8.776402,4.446989 8.652151,4.455449 c -0.124251,0.008 -0.243949,0.0674 -0.345344,0.15891 -0.101394,0.0915 -0.18437,0.21547 -0.270951,0.38825 -0.08658,0.17279 -0.176622,0.39412 -0.264703,0.59775 -0.08808,0.20364 -0.174122,0.38938 -0.246769,0.53354 -0.07265,0.14416 -0.131839,0.2466 -0.229695,0.38952 -0.09785,0.14291 -0.234206,0.32605 -0.361012,0.47185 -0.126806,0.14579 -0.243946,0.25408 -0.340755,0.32546 -0.09681,0.0714 -0.173205,0.10579 -0.259952,0.10338 C 6.24622,7.422109 6.149386,7.382509 6.04428,7.295489 5.939174,7.208489 5.82599,7.073679 5.69007,6.913579 5.55415,6.753469 5.395507,6.568049 5.253615,6.416389 5.111723,6.264719 4.98759,6.147769 4.856637,6.047059 4.725683,5.946339 4.586894,5.861409 4.243426,5.698209 3.899958,5.535009 3.351158,5.293129 3.101347,5.389939 c -0.249812,0.0968 -0.200556,0.53237 -0.10899,1.32189 0.09157,0.78952 0.226764,1.9443 0.352304,2.93843 0.12554,0.99413 0.242076,1.83321 0.271213,2.94039 0.02914,1.10719 -0.02913,2.48232 -0.136932,3.75265 -0.107802,1.27033 -0.26513,2.43572 -0.469079,3.39139 -0.203949,0.95566 -0.454503,1.7015 -0.871857,2.58121 -0.417354,0.87971 -1.001418,1.8931 -1.293491,2.39987 -0.292073,0.50676 -0.292683,0.50738 -0.396823,0.6173 z"
         style="fill:none;stroke-width:0.05"
         pcbmode:style="stroke"
         id="path3940"
         inkscape:connector-curvature="0" />
    </g>
  </g>
</svg>
